<mxfile host="app.diagrams.net" agent="Mozilla/5.0 (Windows NT 10.0; Win64; x64) AppleWebKit/537.36 (KHTML, like Gecko) Chrome/131.0.0.0 Safari/537.36" version="25.0.3">
  <diagram name="Page-1" id="ugoa5AF-JXPQ5qLje4hj">
    <mxGraphModel dx="965" dy="510" grid="1" gridSize="10" guides="1" tooltips="1" connect="1" arrows="1" fold="1" page="1" pageScale="1" pageWidth="850" pageHeight="1100" math="0" shadow="0">
      <root>
        <mxCell id="0" />
        <mxCell id="1" parent="0" />
        <mxCell id="BzoIqM4blQ41h01KZd5x-3" value="" style="edgeStyle=orthogonalEdgeStyle;rounded=0;orthogonalLoop=1;jettySize=auto;html=1;" edge="1" parent="1" source="BzoIqM4blQ41h01KZd5x-1" target="BzoIqM4blQ41h01KZd5x-2">
          <mxGeometry relative="1" as="geometry" />
        </mxCell>
        <mxCell id="BzoIqM4blQ41h01KZd5x-1" value="เริ่ม" style="strokeWidth=2;html=1;shape=mxgraph.flowchart.start_1;whiteSpace=wrap;" vertex="1" parent="1">
          <mxGeometry x="325" y="40" width="100" height="60" as="geometry" />
        </mxCell>
        <mxCell id="BzoIqM4blQ41h01KZd5x-5" value="" style="edgeStyle=orthogonalEdgeStyle;rounded=0;orthogonalLoop=1;jettySize=auto;html=1;" edge="1" parent="1" source="BzoIqM4blQ41h01KZd5x-2" target="BzoIqM4blQ41h01KZd5x-4">
          <mxGeometry relative="1" as="geometry" />
        </mxCell>
        <mxCell id="BzoIqM4blQ41h01KZd5x-2" value="กำหนดตัวแปร" style="whiteSpace=wrap;html=1;strokeWidth=2;" vertex="1" parent="1">
          <mxGeometry x="315" y="180" width="120" height="60" as="geometry" />
        </mxCell>
        <mxCell id="BzoIqM4blQ41h01KZd5x-7" value="" style="edgeStyle=orthogonalEdgeStyle;rounded=0;orthogonalLoop=1;jettySize=auto;html=1;" edge="1" parent="1" source="BzoIqM4blQ41h01KZd5x-4" target="BzoIqM4blQ41h01KZd5x-6">
          <mxGeometry relative="1" as="geometry" />
        </mxCell>
        <mxCell id="BzoIqM4blQ41h01KZd5x-4" value="รับจำนวนแถวและคอลัม" style="shape=parallelogram;perimeter=parallelogramPerimeter;whiteSpace=wrap;html=1;fixedSize=1;strokeWidth=2;" vertex="1" parent="1">
          <mxGeometry x="290" y="320" width="170" height="60" as="geometry" />
        </mxCell>
        <mxCell id="BzoIqM4blQ41h01KZd5x-9" value="" style="edgeStyle=orthogonalEdgeStyle;rounded=0;orthogonalLoop=1;jettySize=auto;html=1;" edge="1" parent="1" source="BzoIqM4blQ41h01KZd5x-13" target="BzoIqM4blQ41h01KZd5x-8">
          <mxGeometry relative="1" as="geometry" />
        </mxCell>
        <mxCell id="BzoIqM4blQ41h01KZd5x-6" value="กำหนดตัวแปรอาเรย์1 2 3" style="whiteSpace=wrap;html=1;strokeWidth=2;" vertex="1" parent="1">
          <mxGeometry x="315" y="460" width="120" height="60" as="geometry" />
        </mxCell>
        <mxCell id="BzoIqM4blQ41h01KZd5x-12" style="edgeStyle=orthogonalEdgeStyle;rounded=0;orthogonalLoop=1;jettySize=auto;html=1;entryX=0;entryY=0.5;entryDx=0;entryDy=0;entryPerimeter=0;exitX=0.5;exitY=1;exitDx=0;exitDy=0;" edge="1" parent="1" source="BzoIqM4blQ41h01KZd5x-15">
          <mxGeometry relative="1" as="geometry">
            <mxPoint x="365" y="540" as="targetPoint" />
            <mxPoint x="380" y="926.828380766369" as="sourcePoint" />
            <Array as="points">
              <mxPoint x="375" y="880" />
              <mxPoint x="250" y="880" />
              <mxPoint x="250" y="540" />
            </Array>
          </mxGeometry>
        </mxCell>
        <mxCell id="BzoIqM4blQ41h01KZd5x-16" value="" style="edgeStyle=orthogonalEdgeStyle;rounded=0;orthogonalLoop=1;jettySize=auto;html=1;" edge="1" parent="1" source="BzoIqM4blQ41h01KZd5x-8" target="BzoIqM4blQ41h01KZd5x-15">
          <mxGeometry relative="1" as="geometry" />
        </mxCell>
        <mxCell id="BzoIqM4blQ41h01KZd5x-17" style="edgeStyle=orthogonalEdgeStyle;rounded=0;orthogonalLoop=1;jettySize=auto;html=1;exitX=0.969;exitY=0.496;exitDx=0;exitDy=0;exitPerimeter=0;entryX=0.5;entryY=0;entryDx=0;entryDy=0;entryPerimeter=0;" edge="1" parent="1" source="BzoIqM4blQ41h01KZd5x-8" target="BzoIqM4blQ41h01KZd5x-26">
          <mxGeometry relative="1" as="geometry">
            <mxPoint x="380" y="970" as="targetPoint" />
            <mxPoint x="459.9999999999999" y="669.9999999999999" as="sourcePoint" />
            <Array as="points">
              <mxPoint x="460" y="659" />
              <mxPoint x="481" y="660" />
              <mxPoint x="481" y="920" />
              <mxPoint x="374" y="920" />
            </Array>
          </mxGeometry>
        </mxCell>
        <mxCell id="BzoIqM4blQ41h01KZd5x-8" value="กรอกค่าอาเรย์1ครบไหม" style="rhombus;whiteSpace=wrap;html=1;strokeWidth=2;" vertex="1" parent="1">
          <mxGeometry x="300" y="590" width="150" height="140" as="geometry" />
        </mxCell>
        <mxCell id="BzoIqM4blQ41h01KZd5x-10" value="ไม่ใช่" style="text;html=1;align=center;verticalAlign=middle;whiteSpace=wrap;rounded=0;" vertex="1" parent="1">
          <mxGeometry x="290" y="700" width="60" height="30" as="geometry" />
        </mxCell>
        <mxCell id="BzoIqM4blQ41h01KZd5x-11" value="ใช่" style="text;html=1;align=center;verticalAlign=middle;whiteSpace=wrap;rounded=0;" vertex="1" parent="1">
          <mxGeometry x="420" y="620" width="60" height="30" as="geometry" />
        </mxCell>
        <mxCell id="BzoIqM4blQ41h01KZd5x-14" value="" style="edgeStyle=orthogonalEdgeStyle;rounded=0;orthogonalLoop=1;jettySize=auto;html=1;" edge="1" parent="1" source="BzoIqM4blQ41h01KZd5x-6" target="BzoIqM4blQ41h01KZd5x-13">
          <mxGeometry relative="1" as="geometry">
            <mxPoint x="375" y="520" as="sourcePoint" />
            <mxPoint x="375" y="590" as="targetPoint" />
          </mxGeometry>
        </mxCell>
        <mxCell id="BzoIqM4blQ41h01KZd5x-13" value="" style="verticalLabelPosition=bottom;verticalAlign=top;html=1;shape=mxgraph.flowchart.on-page_reference;" vertex="1" parent="1">
          <mxGeometry x="365" y="540" width="20" height="20" as="geometry" />
        </mxCell>
        <mxCell id="BzoIqM4blQ41h01KZd5x-15" value="กรอกค่าอาเรย์" style="shape=parallelogram;perimeter=parallelogramPerimeter;whiteSpace=wrap;html=1;fixedSize=1;strokeWidth=2;" vertex="1" parent="1">
          <mxGeometry x="315" y="780" width="120" height="60" as="geometry" />
        </mxCell>
        <mxCell id="BzoIqM4blQ41h01KZd5x-18" value="" style="edgeStyle=orthogonalEdgeStyle;rounded=0;orthogonalLoop=1;jettySize=auto;html=1;" edge="1" parent="1" source="BzoIqM4blQ41h01KZd5x-26" target="BzoIqM4blQ41h01KZd5x-22">
          <mxGeometry relative="1" as="geometry" />
        </mxCell>
        <mxCell id="BzoIqM4blQ41h01KZd5x-19" style="edgeStyle=orthogonalEdgeStyle;rounded=0;orthogonalLoop=1;jettySize=auto;html=1;entryX=0;entryY=0.5;entryDx=0;entryDy=0;entryPerimeter=0;exitX=0.5;exitY=1;exitDx=0;exitDy=0;" edge="1" parent="1" source="BzoIqM4blQ41h01KZd5x-27" target="BzoIqM4blQ41h01KZd5x-26">
          <mxGeometry relative="1" as="geometry">
            <mxPoint x="364" y="990" as="targetPoint" />
            <mxPoint x="379" y="1376.828380766369" as="sourcePoint" />
            <Array as="points">
              <mxPoint x="374" y="1330" />
              <mxPoint x="249" y="1330" />
              <mxPoint x="249" y="1000" />
            </Array>
          </mxGeometry>
        </mxCell>
        <mxCell id="BzoIqM4blQ41h01KZd5x-20" value="" style="edgeStyle=orthogonalEdgeStyle;rounded=0;orthogonalLoop=1;jettySize=auto;html=1;" edge="1" parent="1" source="BzoIqM4blQ41h01KZd5x-22" target="BzoIqM4blQ41h01KZd5x-27">
          <mxGeometry relative="1" as="geometry" />
        </mxCell>
        <mxCell id="BzoIqM4blQ41h01KZd5x-21" style="edgeStyle=orthogonalEdgeStyle;rounded=0;orthogonalLoop=1;jettySize=auto;html=1;exitX=0.969;exitY=0.496;exitDx=0;exitDy=0;exitPerimeter=0;" edge="1" parent="1" source="BzoIqM4blQ41h01KZd5x-22">
          <mxGeometry relative="1" as="geometry">
            <mxPoint x="379" y="1420" as="targetPoint" />
            <mxPoint x="458.9999999999999" y="1120" as="sourcePoint" />
            <Array as="points">
              <mxPoint x="459" y="1109" />
              <mxPoint x="480" y="1110" />
              <mxPoint x="480" y="1370" />
              <mxPoint x="379" y="1370" />
            </Array>
          </mxGeometry>
        </mxCell>
        <mxCell id="BzoIqM4blQ41h01KZd5x-22" value="กรอกค่าอาเรย์2ครบไหม" style="rhombus;whiteSpace=wrap;html=1;strokeWidth=2;" vertex="1" parent="1">
          <mxGeometry x="299" y="1040" width="150" height="140" as="geometry" />
        </mxCell>
        <mxCell id="BzoIqM4blQ41h01KZd5x-23" value="ไม่ใช่" style="text;html=1;align=center;verticalAlign=middle;whiteSpace=wrap;rounded=0;" vertex="1" parent="1">
          <mxGeometry x="289" y="1150" width="60" height="30" as="geometry" />
        </mxCell>
        <mxCell id="BzoIqM4blQ41h01KZd5x-24" value="ใช่" style="text;html=1;align=center;verticalAlign=middle;whiteSpace=wrap;rounded=0;" vertex="1" parent="1">
          <mxGeometry x="419" y="1070" width="60" height="30" as="geometry" />
        </mxCell>
        <mxCell id="BzoIqM4blQ41h01KZd5x-26" value="" style="verticalLabelPosition=bottom;verticalAlign=top;html=1;shape=mxgraph.flowchart.on-page_reference;" vertex="1" parent="1">
          <mxGeometry x="364" y="990" width="20" height="20" as="geometry" />
        </mxCell>
        <mxCell id="BzoIqM4blQ41h01KZd5x-27" value="กรอกค่าอาเรย์" style="shape=parallelogram;perimeter=parallelogramPerimeter;whiteSpace=wrap;html=1;fixedSize=1;strokeWidth=2;" vertex="1" parent="1">
          <mxGeometry x="314" y="1230" width="120" height="60" as="geometry" />
        </mxCell>
        <mxCell id="BzoIqM4blQ41h01KZd5x-30" value="" style="edgeStyle=orthogonalEdgeStyle;rounded=0;orthogonalLoop=1;jettySize=auto;html=1;" edge="1" parent="1" source="BzoIqM4blQ41h01KZd5x-28" target="BzoIqM4blQ41h01KZd5x-29">
          <mxGeometry relative="1" as="geometry" />
        </mxCell>
        <mxCell id="BzoIqM4blQ41h01KZd5x-28" value="คำนวนผลรวมอาเรย์เอาอาเรย์1 2 มารวมกัน" style="whiteSpace=wrap;html=1;strokeWidth=2;" vertex="1" parent="1">
          <mxGeometry x="315" y="1420" width="120" height="60" as="geometry" />
        </mxCell>
        <mxCell id="BzoIqM4blQ41h01KZd5x-32" value="" style="edgeStyle=orthogonalEdgeStyle;rounded=0;orthogonalLoop=1;jettySize=auto;html=1;" edge="1" parent="1" source="BzoIqM4blQ41h01KZd5x-29" target="BzoIqM4blQ41h01KZd5x-31">
          <mxGeometry relative="1" as="geometry" />
        </mxCell>
        <mxCell id="BzoIqM4blQ41h01KZd5x-29" value="แสดงผลลัพธ์อาเรย์" style="shape=parallelogram;perimeter=parallelogramPerimeter;whiteSpace=wrap;html=1;fixedSize=1;strokeWidth=2;" vertex="1" parent="1">
          <mxGeometry x="315" y="1560" width="120" height="60" as="geometry" />
        </mxCell>
        <mxCell id="BzoIqM4blQ41h01KZd5x-31" value="จบ" style="strokeWidth=2;html=1;shape=mxgraph.flowchart.start_1;whiteSpace=wrap;" vertex="1" parent="1">
          <mxGeometry x="325" y="1690" width="100" height="60" as="geometry" />
        </mxCell>
      </root>
    </mxGraphModel>
  </diagram>
</mxfile>
